<svg xmlns="http://www.w3.org/2000/svg" width="1331" height="325" fill="none">
  <path fill="#FFFFFF" d="M390.4 229.5h94.7v-28.54h-61.04V93.48h-33.65V229.5Zm150.8-19.02c-13.5 0-20.54-11.8-20.54-29.5 0-17.68 7.04-29.67 20.54-29.67s20.73 11.99 20.73 29.68c0 17.7-7.23 29.49-20.73 29.49Zm.19 22.07c31.37 0 51.9-22.26 51.9-51.56s-20.53-51.56-51.9-51.56c-31.18 0-52.1 22.26-52.1 51.56s20.92 51.55 52.1 51.55Zm106.21 30.62c14.45 0 27.2-3.23 35.75-10.84 7.8-7.04 12.93-17.7 12.93-32.34v-87.9h-29.66v10.47h-.38c-5.7-8.18-14.45-13.32-27.38-13.32-24.15 0-40.88 20.17-40.88 48.7 0 29.87 20.34 46.23 42.2 46.23 11.8 0 19.21-4.75 24.92-11.22h.76v9.7c0 11.8-5.52 18.65-18.64 18.65-10.26 0-15.4-4.38-17.11-9.52h-30.04c3.04 20.36 20.72 31.4 47.53 31.4Zm-.19-62.02c-11.6 0-19.2-9.5-19.2-24.16 0-14.84 7.6-24.35 19.2-24.35 12.93 0 19.78 11.04 19.78 24.16 0 13.7-6.28 24.35-19.78 24.35Zm109.86 9.33c-13.5 0-20.53-11.8-20.53-29.5 0-17.68 7.03-29.67 20.53-29.67S778 163.3 778 180.99c0 17.7-7.23 29.49-20.73 29.49Zm.2 22.07c31.37 0 51.9-22.26 51.9-51.56s-20.53-51.56-51.9-51.56c-31.2 0-52.1 22.26-52.1 51.56s20.9 51.55 52.1 51.55Zm60.95-3.05h31v-97.4h-31v97.4Zm0-110.91h31V93.48h-31v25.1Zm44.44 143.06h31v-42.23h.37c6.09 8.18 15.03 13.12 27.58 13.12 25.47 0 42.4-20.16 42.4-51.74 0-29.3-15.79-51.56-41.65-51.56-13.3 0-22.81 5.9-29.47 14.65h-.57v-11.8h-29.66v129.56Zm50.96-53.08c-13.31 0-20.92-10.84-20.92-26.63s6.85-27.78 20.35-27.78c13.3 0 19.58 11.04 19.58 27.78 0 16.55-7.22 26.63-19.01 26.63Zm100.85 23.97c25.47 0 44.3-11.03 44.3-32.34 0-24.92-20.16-29.3-37.27-32.15-12.36-2.28-23.39-3.23-23.39-10.08 0-6.09 5.9-8.94 13.5-8.94 8.56 0 14.45 2.66 15.6 11.41h28.52c-1.52-19.21-16.36-31.2-43.93-31.2-23 0-42.02 10.66-42.02 31.2 0 22.83 18.07 27.4 34.99 30.25 12.93 2.28 24.72 3.23 24.72 11.99 0 6.27-5.9 9.7-15.21 9.7-10.27 0-16.74-4.76-17.88-14.46h-29.28c.95 21.5 18.82 34.62 47.35 34.62Zm86.4-.19c13.5 0 22.06-5.32 29.09-14.83h.57v11.98h29.66v-97.4h-30.99v54.4c0 11.61-6.46 19.6-17.11 19.6-9.89 0-14.64-5.9-14.64-16.55V132.1h-30.81v63.92c0 21.69 11.79 36.33 34.23 36.33Zm72.81-2.85h30.99v-54.6c0-11.6 5.71-19.78 15.4-19.78 9.32 0 13.69 6.08 13.69 16.55v57.83h31v-54.6c0-11.6 5.51-19.78 15.4-19.78 9.32 0 13.69 6.08 13.69 16.55v57.83h30.99v-63.35c0-21.88-11.03-36.9-33.08-36.9-12.55 0-23.01 5.32-30.62 17.11h-.38c-4.94-10.46-14.64-17.12-27.38-17.12-14.07 0-23.38 6.66-29.47 16.74h-.57V132.1h-29.66v97.4Z"/>
  <path fill="#F97316" d="m201.31 15.67-31.16-8.35-26.26 98.05-23.7-88.52-31.16 8.35 25.61 95.64-63.8-63.83-22.8 22.82L98 149.85l-87.15-23.37-8.35 31.18 95.22 25.53a64.81 64.81 0 0 1-1.66-14.64 64.53 64.53 0 0 1 64.52-64.56 64.54 64.54 0 0 1 62.87 79.1l86.53 23.2 8.35-31.17-95.6-25.63 87.16-23.36-8.35-31.18-95.6 25.63 63.8-63.83-22.8-22.83-69.02 69.05 23.38-87.3Z"/>
  <path fill="#F97316" d="M223.37 183.46a64.44 64.44 0 0 1-16.05 29.59l62.7 62.72 22.8-22.82-69.45-69.49ZM206.7 213.7a64.47 64.47 0 0 1-28.83 17.06l22.81 85.18 31.16-8.35-25.14-93.89Zm-30 17.37a64.57 64.57 0 0 1-16.1 2.03c-5.96 0-11.74-.81-17.21-2.32l-22.84 85.26 31.16 8.35 25-93.32Zm-34.41-.6a64.5 64.5 0 0 1-28.33-17.31l-62.84 62.87 22.8 22.83 68.37-68.4Zm-28.85-17.87a64.41 64.41 0 0 1-15.65-29.22l-86.82 23.28 8.35 31.17 94.12-25.23Z"/>
</svg>